<?xml version="1.0" standalone="no"?>
<!DOCTYPE svg PUBLIC "-//W3C//DTD SVG 20010904//EN"
 "http://www.w3.org/TR/2001/REC-SVG-20010904/DTD/svg10.dtd">
<svg version="1.0" xmlns="http://www.w3.org/2000/svg"
 width="2560.000000pt" height="1440.000000pt" viewBox="0 0 2560.000000 1440.000000"
 preserveAspectRatio="xMidYMid meet">
<metadata>
Created by potrace 1.15, written by Peter Selinger 2001-2017
</metadata>
<g transform="translate(0.000000,1440.000000) scale(0.100000,-0.100000)"
fill="#000000" stroke="none">
<path d="M0 7200 l0 -7200 8950 0 c4923 0 8950 2 8950 5 0 2 -24 15 -53 29
-30 13 -66 39 -82 58 l-28 33 7 200 c4 110 13 306 21 435 8 129 19 336 25 460
18 400 31 614 36 640 8 37 33 60 67 60 16 0 68 -15 116 -34 47 -19 113 -43
146 -54 33 -11 92 -35 130 -52 39 -17 86 -38 105 -45 55 -20 311 -125 355
-145 22 -10 108 -45 190 -78 83 -33 179 -72 215 -87 53 -22 68 -25 84 -15 16
10 18 10 13 -4 -4 -9 -2 -16 4 -16 6 0 17 -7 26 -15 18 -19 11 -57 -16 -86
-20 -21 -29 -76 -37 -224 -3 -49 -9 -139 -15 -200 -5 -60 -9 -136 -9 -167 0
-31 -4 -59 -8 -62 -8 -5 -22 -190 -27 -351 -2 -33 -5 -86 -9 -117 -3 -32 -9
-83 -12 -113 l-5 -55 3230 0 3231 0 0 7200 0 7200 -12800 0 -12800 0 0 -7200z
m4020 1972 c41 -13 99 -30 129 -38 30 -9 75 -30 99 -47 24 -18 58 -41 76 -52
18 -11 44 -32 58 -47 14 -16 28 -28 31 -28 11 0 67 -62 67 -75 0 -7 18 -31 40
-53 35 -34 40 -45 40 -84 0 -28 -6 -50 -15 -58 -8 -7 -15 -18 -15 -25 0 -7
-11 -24 -25 -39 -14 -15 -25 -34 -25 -42 0 -9 -9 -18 -20 -21 -10 -3 -26 -16
-35 -30 -9 -14 -19 -22 -22 -19 -9 9 -43 -13 -43 -28 0 -15 -21 -26 -50 -26
-11 0 -24 -9 -30 -20 -12 -23 -80 -60 -109 -60 -28 0 -91 -31 -91 -45 0 -6
-21 -17 -47 -24 -77 -21 -177 -54 -188 -61 -17 -11 -306 -73 -400 -85 -27 -4
-54 -10 -60 -14 -5 -4 -57 -22 -115 -40 -58 -18 -150 -47 -205 -64 -55 -18
-102 -35 -105 -39 -3 -4 -37 -12 -75 -18 -39 -6 -83 -15 -100 -20 -36 -11
-175 -19 -328 -19 -61 0 -136 0 -164 -1 -31 -1 -53 3 -53 9 0 6 -17 11 -37 11
-21 0 -51 7 -67 15 -15 8 -35 15 -42 15 -8 0 -13 3 -13 8 3 18 -2 35 -8 29 -3
-4 -15 7 -25 24 -18 29 -18 34 -4 70 9 22 13 39 9 39 -4 0 3 9 15 20 12 11 25
20 30 20 5 0 17 9 28 21 10 12 36 30 56 40 21 11 37 23 37 27 -4 24 3 42 15
42 8 0 21 7 30 15 8 9 19 17 23 18 4 1 7 5 6 9 -2 4 4 5 12 2 8 -4 15 -1 15 5
0 6 -5 11 -11 11 -5 0 -7 5 -4 10 4 6 10 8 15 5 11 -7 61 12 58 23 -2 4 22 33
52 64 38 39 65 57 85 60 17 1 28 6 25 9 -5 6 44 56 75 77 11 7 39 22 63 33 23
11 42 23 42 28 0 4 25 23 55 42 30 18 55 37 55 42 0 4 7 7 15 7 8 0 15 6 15
13 0 8 11 19 25 25 14 7 28 19 31 27 4 8 13 15 22 15 8 0 39 18 68 40 29 22
56 40 59 40 4 0 21 11 39 25 18 14 37 25 42 25 5 0 21 11 35 24 14 13 35 27
47 30 12 4 22 12 22 17 0 5 7 9 16 9 8 0 32 9 52 19 50 26 110 44 122 36 5 -3
24 2 42 12 86 45 407 54 538 15z m13966 -1610 c10 -10 28 -22 39 -27 19 -8 19
-9 -2 -12 -19 -4 -23 -11 -23 -44 0 -32 -4 -39 -19 -39 -18 0 -20 -9 -23 -86
-2 -47 1 -89 7 -95 14 -13 -14 -31 -40 -25 -11 3 -61 -2 -110 -10 -153 -26
-168 -26 -186 -3 -12 16 -43 26 -125 43 -66 13 -108 26 -107 33 1 6 -7 13 -17
16 -11 3 -20 1 -20 -4 0 -6 -7 -6 -17 -1 -10 5 -49 15 -88 22 -38 6 -95 19
-125 28 -30 9 -57 17 -60 17 -29 5 -79 29 -84 41 -8 22 29 32 171 49 68 8 129
17 135 21 12 7 130 23 232 30 38 2 74 8 80 12 6 4 52 13 101 19 50 7 108 17
130 22 69 15 129 13 151 -7z m-1665 -214 c41 -8 47 -15 40 -49 -7 -35 -15 -41
-78 -60 -24 -7 -43 -18 -43 -26 0 -9 -13 -13 -40 -13 l-40 0 0 -48 c0 -47 -1
-49 -37 -58 -45 -11 -53 -29 -18 -38 18 -5 25 -12 21 -21 -3 -9 0 -15 8 -15 8
0 17 6 19 13 4 8 6 7 7 -3 1 -25 69 -69 116 -76 28 -4 44 -11 44 -20 0 -8 -3
-13 -7 -12 -5 0 -17 -3 -27 -7 -13 -6 -21 -4 -24 3 -2 7 -19 12 -38 12 -19 0
-34 4 -34 9 0 4 -18 8 -40 8 -21 0 -55 8 -75 17 -20 10 -45 18 -55 19 -11 1
-20 4 -20 8 0 3 -14 6 -30 7 -17 0 -44 8 -62 16 -17 9 -38 16 -47 16 -9 0 -29
7 -45 15 -15 8 -38 15 -51 15 -12 0 -28 7 -35 15 -7 8 -27 15 -44 15 -41 0
-77 10 -71 20 3 5 -14 11 -37 15 -55 8 -158 45 -158 56 0 5 -13 9 -29 9 -17 0
-33 5 -37 12 -4 6 -3 8 3 5 5 -4 19 2 30 12 18 17 101 46 203 70 90 22 357 60
419 60 35 0 65 2 68 4 5 6 208 1 244 -5z m907 -244 c28 -3 52 -10 52 -15 0 -5
9 -9 20 -9 11 0 20 -7 20 -15 0 -8 6 -15 13 -16 6 0 -1 -5 -18 -10 -17 -5 -31
-5 -33 0 -3 10 -74 -8 -83 -21 -3 -4 -40 -11 -83 -14 -42 -4 -73 -10 -67 -13
9 -6 -78 -7 -89 -1 -3 1 15 6 40 11 25 4 63 12 85 17 34 8 36 10 12 11 -16 0
-26 5 -23 10 9 15 -41 41 -79 41 -19 0 -35 5 -35 10 0 6 18 10 40 10 22 0 40
4 40 10 0 9 58 7 188 -6z m-1988 -125 c58 -17 172 -49 254 -70 82 -22 255 -72
385 -110 130 -39 272 -80 316 -93 167 -46 163 -34 141 -483 -23 -491 -54
-1068 -65 -1203 -9 -106 -11 -116 -36 -137 -15 -14 -39 -23 -58 -23 -30 0
-166 39 -337 96 -41 14 -88 30 -105 34 -16 5 -88 30 -160 55 -71 26 -188 67
-260 92 -71 24 -152 55 -180 67 -27 13 -59 26 -71 30 -11 3 -32 18 -45 32 -24
25 -24 27 -22 217 2 106 8 273 14 372 11 189 12 202 24 758 10 446 0 426 205
366z m2667 -19 c21 -7 44 -17 51 -23 8 -6 29 -10 47 -9 39 3 66 -22 45 -41
-10 -9 -14 -9 -17 0 -2 7 -11 9 -19 6 -17 -6 -19 -49 -3 -59 8 -5 10 1 7 19
-5 26 -5 26 28 -7 29 -29 34 -41 34 -80 l0 -46 -40 0 -40 0 0 -76 c0 -61 -4
-79 -17 -90 -17 -13 -17 -13 0 -14 10 0 17 -8 17 -19 0 -22 -20 -27 -118 -30
-52 -1 -74 2 -85 14 -9 8 -22 15 -29 15 -8 0 -23 7 -34 15 -10 8 -36 15 -56
15 -21 0 -38 4 -38 9 0 5 -15 11 -32 14 -65 11 -214 49 -245 63 -18 8 -63 22
-100 30 -37 9 -94 25 -126 35 -31 10 -64 19 -72 19 -8 0 -15 9 -15 19 0 23
-16 36 -25 21 -3 -5 -1 -10 4 -10 6 0 11 -6 11 -14 0 -10 -16 -7 -68 13 -65
24 -91 51 -50 51 11 0 16 -5 13 -10 -5 -8 10 -8 47 -3 29 4 72 7 96 7 33 -1
42 2 42 15 0 13 -8 16 -40 13 -25 -3 -40 0 -40 7 0 6 5 11 10 11 6 0 10 7 10
15 0 14 14 19 48 18 7 -1 11 5 8 12 -3 10 4 11 32 4 27 -6 50 -3 91 12 30 10
74 19 96 19 23 0 45 3 49 8 4 4 22 7 39 8 28 0 78 9 197 32 54 11 245 5 287
-8z m-997 -384 c276 -75 757 -211 925 -261 49 -14 95 -31 102 -36 21 -18 24
-63 14 -230 -6 -90 -22 -360 -36 -599 -38 -667 -41 -685 -96 -766 -152 -223
-524 -247 -889 -55 -114 59 -172 103 -281 211 -111 110 -180 225 -216 360 -16
58 -13 258 7 545 5 72 12 213 15 315 3 102 10 248 15 325 5 77 10 159 10 181
0 27 8 51 22 69 20 26 25 27 77 22 31 -3 180 -39 331 -81z m1435 -371 c88 -24
282 -79 430 -120 297 -83 380 -107 470 -135 98 -31 205 -61 285 -79 66 -15 78
-22 98 -52 21 -30 23 -41 18 -99 -9 -89 -23 -273 -40 -540 -28 -409 -46 -672
-62 -880 -37 -489 -32 -465 -88 -476 -22 -4 -57 0 -93 11 -129 37 -350 107
-378 119 -16 7 -91 32 -165 56 -74 23 -164 53 -200 65 -36 12 -180 60 -320
106 -274 89 -290 98 -311 169 -13 42 -8 145 66 1320 8 135 18 297 21 360 3 63
10 130 16 147 10 35 50 73 77 73 9 0 88 -20 176 -45z m-3070 -1268 c61 -19
171 -56 245 -82 74 -26 155 -53 180 -60 25 -7 79 -25 120 -40 41 -14 84 -29
95 -32 62 -19 149 -108 196 -202 46 -93 95 -254 114 -373 9 -57 20 -125 26
-151 20 -106 5 -477 -26 -627 -21 -99 -32 -133 -66 -205 -51 -105 -65 -125
-124 -189 -94 -100 -161 -101 -380 -6 -27 12 -68 30 -90 39 -35 16 -88 37
-150 61 -11 4 -47 19 -80 33 -33 13 -85 32 -115 41 -30 10 -65 24 -77 32 -12
8 -29 14 -36 14 -20 0 -79 31 -103 54 -34 34 -44 97 -39 251 3 77 8 221 10
320 8 349 35 1071 41 1112 7 45 17 58 49 65 21 5 26 3 210 -55z m1637 -517
c68 -22 166 -54 218 -71 52 -17 104 -35 115 -40 11 -5 49 -18 85 -29 70 -22
73 -23 169 -66 102 -46 187 -140 260 -289 87 -177 94 -222 59 -415 -14 -76
-26 -195 -34 -345 -1 -27 -7 -120 -12 -205 -6 -85 -10 -163 -10 -173 -1 -10
-6 -42 -12 -70 -5 -29 -12 -61 -14 -72 -5 -23 -56 -138 -65 -145 -3 -3 -19
-25 -36 -49 -33 -49 -93 -99 -148 -124 -39 -18 -126 -23 -142 -9 -6 5 -30 15
-55 22 -85 25 -195 61 -215 69 -11 5 -40 17 -65 26 -104 38 -289 121 -345 155
-57 34 -138 121 -169 180 -7 14 -24 45 -38 70 -31 58 -77 181 -90 245 -13 62
-12 317 2 535 5 91 15 242 20 335 8 139 14 182 34 238 29 78 35 88 99 156 50
53 86 76 152 97 66 21 108 16 237 -26z m1541 -486 c47 -14 382 -125 792 -261
88 -29 169 -53 180 -53 23 0 84 -41 97 -65 6 -9 -2 -23 -23 -43 l-31 -29 -9
-154 c-4 -85 -13 -206 -19 -269 -11 -118 -13 -150 -24 -330 -4 -58 -13 -181
-21 -275 -15 -185 -30 -444 -26 -460 1 -5 -2 -36 -8 -70 -16 -90 -33 -236 -32
-267 1 -16 -4 -28 -10 -28 -7 0 -17 -6 -23 -14 -9 -11 -23 -11 -86 5 -41 11
-89 26 -107 34 -17 8 -36 15 -41 15 -6 0 -40 13 -76 30 -37 16 -85 34 -109 41
-23 6 -55 17 -72 25 -16 7 -59 25 -95 38 -265 99 -409 159 -444 184 -35 25
-143 162 -145 184 -1 4 -16 40 -34 80 -58 127 -75 184 -108 368 -20 106 -23
161 -24 360 0 255 6 310 57 500 67 251 171 405 305 455 50 18 74 18 136 -1z
m-3375 -930 c20 -9 80 -31 132 -49 209 -73 410 -153 558 -221 29 -13 57 -24
63 -24 6 0 47 -17 93 -39 45 -21 97 -42 116 -46 53 -11 108 -42 126 -71 15
-23 16 -50 10 -257 -8 -243 -9 -274 -26 -502 -15 -206 -24 -383 -36 -700 -8
-221 -12 -230 -88 -221 -28 3 -52 10 -54 16 -2 5 -8 10 -14 10 -5 0 -24 6 -41
14 -18 8 -39 17 -47 20 -8 3 -22 10 -30 15 -8 5 -28 14 -45 21 -16 7 -37 16
-45 20 -8 5 -53 27 -100 50 -47 23 -93 46 -103 51 -10 5 -22 7 -26 4 -5 -3
-12 2 -15 11 -3 9 -13 14 -20 11 -8 -3 -16 -3 -18 1 -3 7 -98 56 -108 57 -7 0
-103 48 -110 55 -3 3 -12 6 -20 8 -8 1 -43 16 -76 32 -34 17 -68 30 -77 30 -8
0 -20 6 -26 14 -7 8 -26 18 -42 21 -16 4 -29 10 -29 14 0 4 -11 13 -23 18 -13
6 -31 27 -41 47 -15 31 -17 68 -15 273 1 131 6 312 11 403 5 91 12 325 17 520
5 227 12 365 19 383 10 23 17 27 52 27 22 0 57 -7 78 -16z m1844 -715 c123
-40 285 -115 323 -148 11 -9 31 -24 45 -33 56 -35 290 -261 290 -281 0 -5 11
-23 24 -40 35 -47 54 -89 71 -153 14 -53 13 -60 -2 -83 -12 -19 -19 -59 -24
-146 -4 -66 -14 -232 -23 -370 -9 -137 -20 -333 -25 -435 -15 -280 -22 -339
-41 -362 -17 -21 -18 -21 -71 -4 -67 22 -156 63 -164 76 -3 6 -13 10 -21 10
-8 0 -32 8 -52 19 -121 61 -164 81 -174 81 -6 0 -41 15 -77 34 -36 18 -77 37
-91 41 -14 4 -37 16 -52 26 -14 11 -31 19 -36 19 -9 0 -99 39 -208 91 -23 10
-46 19 -53 19 -6 0 -28 11 -49 23 -20 13 -49 27 -64 30 -15 4 -33 14 -42 22
-8 8 -20 15 -26 15 -7 0 -26 10 -43 22 -18 13 -34 23 -37 22 -3 0 -13 10 -23
23 -16 20 -18 43 -18 195 1 95 3 211 6 258 9 158 25 504 30 660 3 85 11 174
16 196 11 44 75 129 112 151 88 51 127 60 269 62 100 1 116 -2 230 -40z"/>
</g>
</svg>
